<svg width="127" height="24" viewBox="0 0 127 24" fill="none" xmlns="http://www.w3.org/2000/svg">
<mask id="mask0_0_431" style="mask-type:luminance" maskUnits="userSpaceOnUse" x="0" y="0" width="25" height="24">
<path fill-rule="evenodd" clip-rule="evenodd" d="M0 0H24.0719V24H0V0Z" fill="white"/>
</mask>
<g mask="url(#mask0_0_431)">
<rect width="24.0719" height="24" rx="3.29447" fill="#734EE1"/>
<path fill-rule="evenodd" clip-rule="evenodd" d="M3.89429 6.80635H8.14227V2.50784H3.89429V6.80635Z" fill="white"/>
<path fill-rule="evenodd" clip-rule="evenodd" d="M9.91235 8.59664H14.1603V4.29813H9.91235V8.59664Z" fill="white"/>
<path fill-rule="evenodd" clip-rule="evenodd" d="M5.66479 12.8948H9.91278V8.59627H5.66479V12.8948Z" fill="white"/>
<path fill-rule="evenodd" clip-rule="evenodd" d="M14.16 17.1947H18.408V12.8962H14.16V17.1947Z" fill="white"/>
<path fill-rule="evenodd" clip-rule="evenodd" d="M14.16 8.59664H18.408V4.29813H14.16V8.59664Z" fill="white"/>
<path fill-rule="evenodd" clip-rule="evenodd" d="M9.91235 17.1947H14.1603V12.8962H9.91235V17.1947Z" fill="white"/>
<path fill-rule="evenodd" clip-rule="evenodd" d="M5.66479 21.4928H9.91278V17.1943H5.66479V21.4928Z" fill="white"/>
<path fill-rule="evenodd" clip-rule="evenodd" d="M14.16 12.8948H18.408V8.59627H14.16V12.8948Z" fill="white"/>
<path fill-rule="evenodd" clip-rule="evenodd" d="M5.66479 17.1947H9.91278V12.8962H5.66479V17.1947Z" fill="white"/>
</g>
<path fill-rule="evenodd" clip-rule="evenodd" d="M126.997 17.9963V21.1072H114.043V4.35588H126.687V7.46672H117.891V11.1046H125.659V14.1198H117.891V17.9963H126.997ZM99.4698 4.35588H103.304V17.9481H111.614V21.1072H99.4698V4.35588ZM88.9367 13.3438C90.1286 13.3438 91.0346 13.0791 91.6556 12.5496C92.2758 12.0201 92.5867 11.2675 92.5867 10.2926C92.5867 9.29981 92.2758 8.53987 91.6556 8.00955C91.0346 7.48004 90.1286 7.21529 88.9367 7.21529H85.7046V13.3438H88.9367ZM89.3349 4.35588C90.8238 4.35588 92.1161 4.60347 93.2123 5.09784C94.3094 5.59221 95.1531 6.29413 95.7458 7.2036C96.3376 8.11307 96.6348 9.19006 96.6348 10.4346C96.6348 11.6627 96.3376 12.7356 95.7458 13.6533C95.1531 14.5701 94.3094 15.2728 93.2123 15.759C92.1161 16.2452 90.8238 16.4887 89.3349 16.4887H85.9497V21.1072H82.0609V4.35588H89.3349ZM75.1796 10.2796C75.1796 9.29164 74.8687 8.53415 74.2485 8.00628C73.6275 7.47923 72.7215 7.21529 71.5297 7.21529H68.2975V13.3438H71.5297C72.7215 13.3438 73.6275 13.0758 74.2485 12.5406C74.8687 12.0045 75.1796 11.2511 75.1796 10.2796ZM74.7334 21.1072L71.5596 16.4413H68.0578V21.1072H64.25V4.35588H71.3717C72.8291 4.35588 74.0946 4.60347 75.1682 5.09784C76.2418 5.59221 77.0685 6.29413 77.6482 7.2036C78.2279 8.11307 78.5177 9.19006 78.5177 10.4346C78.5177 11.6791 78.2238 12.752 77.636 13.6533C77.0482 14.5546 76.2143 15.2442 75.1326 15.7231L78.8238 21.1072H74.7334ZM53.1153 21.5157C50.7527 21.5157 48.914 20.849 47.5991 19.5154C46.2842 18.1818 45.6259 16.2779 45.6259 13.8036V4.35588H49.454V13.659C49.454 16.6799 50.6822 18.19 53.1387 18.19C54.3362 18.19 55.2495 17.8247 55.8794 17.0934C56.5093 16.3621 56.8251 15.2173 56.8251 13.659V4.35588H60.6054V13.8036C60.6054 16.2779 59.9471 18.1818 58.6323 19.5154C57.3166 20.849 55.4778 21.5157 53.1153 21.5157ZM35.4994 13.3438C36.6912 13.3438 37.5972 13.0791 38.2182 12.5496C38.8384 12.0201 39.1485 11.2675 39.1485 10.2926C39.1485 9.29981 38.8384 8.53987 38.2182 8.00955C37.5972 7.48004 36.6912 7.21529 35.4994 7.21529H32.2664V13.3438H35.4994ZM35.4936 4.35588C36.9826 4.35588 38.2748 4.60347 39.3711 5.09784C40.4682 5.59221 41.3118 6.29413 41.9045 7.2036C42.4963 8.11307 42.7927 9.19006 42.7927 10.4346C42.7927 11.6627 42.4963 12.7356 41.9045 13.6533C41.3118 14.5701 40.4682 15.2728 39.3711 15.759C38.2748 16.2452 36.9826 16.4887 35.4936 16.4887H32.1085V21.1072H28.2189V4.35588H35.4936Z" fill="#734EE1"/>
<mask id="mask1_0_431" style="mask-type:luminance" maskUnits="userSpaceOnUse" x="-1" y="0" width="26" height="24">
<path fill-rule="evenodd" clip-rule="evenodd" d="M-0.00012207 0H24.0718V24H-0.00012207V0Z" fill="white"/>
</mask>
<g mask="url(#mask1_0_431)">
<rect x="-0.00012207" width="24.0719" height="24" rx="3.29447" fill="#734EE1"/>
<path fill-rule="evenodd" clip-rule="evenodd" d="M3.89429 6.80635H8.14227V2.50784H3.89429V6.80635Z" fill="white"/>
<path fill-rule="evenodd" clip-rule="evenodd" d="M9.91226 8.5973H14.1602V4.29879H9.91226V8.5973Z" fill="white"/>
<path fill-rule="evenodd" clip-rule="evenodd" d="M5.66426 12.8961H9.91224L9.91226 8.5973L5.66426 8.59755V12.8961Z" fill="white"/>
<path fill-rule="evenodd" clip-rule="evenodd" d="M14.1603 17.1944H18.4083V12.8959H14.1603V17.1944Z" fill="white"/>
<path fill-rule="evenodd" clip-rule="evenodd" d="M14.1602 8.5973H18.4083V4.29879H14.1602V8.5973Z" fill="white"/>
<path fill-rule="evenodd" clip-rule="evenodd" d="M9.91226 17.1944H14.1603V12.8959L9.91224 12.8961L9.91226 17.1944Z" fill="white"/>
<path fill-rule="evenodd" clip-rule="evenodd" d="M5.66426 21.4932H9.91224L9.91226 17.1944L5.66426 17.1947V21.4932Z" fill="white"/>
<path fill-rule="evenodd" clip-rule="evenodd" d="M14.1603 12.8959H18.4083V8.5973H14.1602L14.1603 12.8959Z" fill="white"/>
<path fill-rule="evenodd" clip-rule="evenodd" d="M5.66426 17.1947L9.91226 17.1944L9.91224 12.8961H5.66426V17.1947Z" fill="white"/>
</g>
</svg>
