<svg width="550" height="550" viewBox="0 0 550 550" fill="none" xmlns="http://www.w3.org/2000/svg">
<path d="M328.986 290.065L328.781 359.688L270.973 326.328L271.16 256.706L328.986 290.065Z" fill="#734EE1" stroke="white" stroke-linecap="round" stroke-linejoin="round"/>
<path d="M386.438 256.706L386.251 326.328L328.784 359.688L328.989 290.065L386.438 256.706Z" fill="#0F0F0F" stroke="white" stroke-linecap="round" stroke-linejoin="round"/>
<path d="M386.433 256.703L328.983 290.062L271.158 256.703L328.625 223.343L386.433 256.703Z" fill="#0F0F0F" stroke="white" stroke-linecap="round" stroke-linejoin="round"/>
<path d="M272.338 323.081L272.133 392.704L214.325 359.344L214.513 289.722L272.338 323.081Z" fill="#734EE1" stroke="white" stroke-linecap="round" stroke-linejoin="round"/>
<path d="M329.79 289.722L329.603 359.344L272.136 392.704L272.341 323.081L329.79 289.722Z" fill="#0F0F0F" stroke="white" stroke-linecap="round" stroke-linejoin="round"/>
<path d="M329.785 289.719L272.336 323.078L214.51 289.719L271.977 256.358L329.785 289.719Z" fill="#0F0F0F" stroke="white" stroke-linecap="round" stroke-linejoin="round"/>
<path d="M215.69 357.284L215.486 426.907L157.678 393.547L157.865 323.925L215.69 357.284Z" fill="#734EE1" stroke="white" stroke-linecap="round" stroke-linejoin="round"/>
<path d="M273.143 323.925L272.956 393.547L215.489 426.907L215.693 357.284L273.143 323.925Z" fill="#0F0F0F" stroke="white" stroke-linecap="round" stroke-linejoin="round"/>
<path d="M273.137 323.922L215.688 357.281L157.863 323.922L215.329 290.561L273.137 323.922Z" fill="#0F0F0F" stroke="white" stroke-linecap="round" stroke-linejoin="round"/>
<path d="M328.986 216.948L328.781 286.571L270.973 253.211L271.16 183.589L328.986 216.948Z" fill="#734EE1" stroke="white" stroke-linecap="round" stroke-linejoin="round"/>
<path d="M386.438 183.589L386.251 253.211L328.784 286.571L328.989 216.948L386.438 183.589Z" fill="#0F0F0F" stroke="white" stroke-linecap="round" stroke-linejoin="round"/>
<path d="M386.433 183.586L328.983 216.945L271.158 183.586L328.625 150.225L386.433 183.586Z" fill="#0F0F0F" stroke="white" stroke-linecap="round" stroke-linejoin="round"/>
<path d="M272.338 249.971L272.133 319.595L214.325 286.234L214.513 216.612L272.338 249.971Z" fill="#734EE1" stroke="white" stroke-linecap="round" stroke-linejoin="round"/>
<path d="M329.79 216.612L329.603 286.234L272.136 319.595L272.341 249.971L329.79 216.612Z" fill="#0F0F0F" stroke="white" stroke-linecap="round" stroke-linejoin="round"/>
<path d="M329.785 216.609L272.336 249.968L214.51 216.609L271.977 183.249L329.785 216.609Z" fill="#0F0F0F" stroke="white" stroke-linecap="round" stroke-linejoin="round"/>
<path d="M328.986 142.651L328.781 212.274L270.973 178.914L271.16 109.292L328.986 142.651Z" fill="#734EE1" stroke="white" stroke-linecap="round" stroke-linejoin="round"/>
<path d="M386.438 109.292L386.251 178.914L328.784 212.274L328.989 142.651L386.438 109.292Z" fill="#0F0F0F" stroke="white" stroke-linecap="round" stroke-linejoin="round"/>
<path d="M386.433 109.289L328.983 142.648L271.158 109.289L328.625 75.9286L386.433 109.289Z" fill="#0F0F0F" stroke="white" stroke-linecap="round" stroke-linejoin="round"/>
<path d="M272.338 175.674L272.133 245.298L214.325 211.937L214.513 142.315L272.338 175.674Z" fill="#734EE1" stroke="white" stroke-linecap="round" stroke-linejoin="round"/>
<path d="M329.79 142.315L329.603 211.937L272.136 245.298L272.341 175.674L329.79 142.315Z" fill="#0F0F0F" stroke="white" stroke-linecap="round" stroke-linejoin="round"/>
<path d="M329.785 142.313L272.336 175.672L214.51 142.313L271.977 108.952L329.785 142.313Z" fill="#0F0F0F" stroke="white" stroke-linecap="round" stroke-linejoin="round"/>
<path d="M215.69 208.69L215.486 278.313L157.678 244.953L157.865 175.331L215.69 208.69Z" fill="#734EE1" stroke="white" stroke-linecap="round" stroke-linejoin="round"/>
<path d="M273.143 175.331L272.956 244.953L215.489 278.313L215.693 208.69L273.143 175.331Z" fill="#0F0F0F" stroke="white" stroke-linecap="round" stroke-linejoin="round"/>
<path d="M273.137 175.328L215.688 208.687L157.863 175.328L215.329 141.968L273.137 175.328Z" fill="#0F0F0F" stroke="white" stroke-linecap="round" stroke-linejoin="round"/>
<path d="M390.34 324.26L390.135 393.884L332.327 360.523L332.514 290.901L390.34 324.26Z" fill="#734EE1" stroke="white" stroke-linecap="round" stroke-linejoin="round"/>
<path d="M447.792 290.901L447.605 360.523L390.138 393.884L390.343 324.26L447.792 290.901Z" fill="#0F0F0F" stroke="white" stroke-linecap="round" stroke-linejoin="round"/>
<path d="M447.787 290.898L390.337 324.257L332.512 290.898L389.979 257.538L447.787 290.898Z" fill="#0F0F0F" stroke="white" stroke-linecap="round" stroke-linejoin="round"/>
<path d="M333.692 357.284L333.487 426.907L275.679 393.547L275.867 323.925L333.692 357.284Z" fill="#734EE1" stroke="white" stroke-linecap="round" stroke-linejoin="round"/>
<path d="M391.144 323.925L390.957 393.547L333.49 426.907L333.695 357.284L391.144 323.925Z" fill="#0F0F0F" stroke="white" stroke-linecap="round" stroke-linejoin="round"/>
<path d="M391.139 323.922L333.69 357.281L275.864 323.922L333.331 290.561L391.139 323.922Z" fill="#0F0F0F" stroke="white" stroke-linecap="round" stroke-linejoin="round"/>
<path d="M395.062 392.667L394.857 462.29L337.049 428.929L337.236 359.308L395.062 392.667Z" fill="#734EE1" stroke="white" stroke-linecap="round" stroke-linejoin="round"/>
<path d="M452.514 359.308L452.327 428.929L394.86 462.29L395.065 392.667L452.514 359.308Z" fill="#0F0F0F" stroke="white" stroke-linecap="round" stroke-linejoin="round"/>
<path d="M452.509 359.305L395.059 392.664L337.234 359.305L394.701 325.944L452.509 359.305Z" fill="#0F0F0F" stroke="white" stroke-linecap="round" stroke-linejoin="round"/>
<path d="M252.278 474.026L252.073 543.649L194.265 510.289L194.452 440.667L252.278 474.026Z" fill="#734EE1" stroke="white" stroke-linecap="round" stroke-linejoin="round"/>
<path d="M309.73 440.667L309.543 510.289L252.076 543.649L252.281 474.026L309.73 440.667Z" fill="#0F0F0F" stroke="white" stroke-linecap="round" stroke-linejoin="round"/>
<path d="M309.725 440.664L252.275 474.023L194.45 440.664L251.917 407.304L309.725 440.664Z" fill="#0F0F0F" stroke="white" stroke-linecap="round" stroke-linejoin="round"/>
<path d="M338.414 425.682L338.209 495.306L280.401 461.945L280.589 392.323L338.414 425.682Z" fill="#F7B500" stroke="white" stroke-linecap="round" stroke-linejoin="round"/>
<path d="M395.866 392.323L395.679 461.945L338.212 495.306L338.417 425.682L395.866 392.323Z" fill="#0F0F0F" stroke="white" stroke-linecap="round" stroke-linejoin="round"/>
<path d="M395.861 392.32L338.412 425.679L280.586 392.32L338.053 358.96L395.861 392.32Z" fill="#0F0F0F" stroke="white" stroke-linecap="round" stroke-linejoin="round"/>
<path d="M390.34 251.151L390.135 320.774L332.327 287.414L332.514 217.792L390.34 251.151Z" fill="#734EE1" stroke="white" stroke-linecap="round" stroke-linejoin="round"/>
<path d="M447.792 217.792L447.605 287.414L390.138 320.774L390.343 251.151L447.792 217.792Z" fill="#0F0F0F" stroke="white" stroke-linecap="round" stroke-linejoin="round"/>
<path d="M447.787 217.789L390.337 251.148L332.512 217.789L389.979 184.429L447.787 217.789Z" fill="#0F0F0F" stroke="white" stroke-linecap="round" stroke-linejoin="round"/>
<path d="M451.709 285.346L451.505 354.97L393.697 321.609L393.884 251.987L451.709 285.346Z" fill="#734EE1" stroke="white" stroke-linecap="round" stroke-linejoin="round"/>
<path d="M509.162 251.987L508.975 321.609L451.508 354.97L451.712 285.346L509.162 251.987Z" fill="#0F0F0F" stroke="white" stroke-linecap="round" stroke-linejoin="round"/>
<path d="M509.156 251.984L451.707 285.343L393.882 251.984L451.348 218.624L509.156 251.984Z" fill="#0F0F0F" stroke="white" stroke-linecap="round" stroke-linejoin="round"/>
<path d="M333.692 284.167L333.487 353.79L275.679 320.429L275.867 250.808L333.692 284.167Z" fill="#734EE1" stroke="white" stroke-linecap="round" stroke-linejoin="round"/>
<path d="M391.144 250.808L390.957 320.429L333.49 353.79L333.695 284.167L391.144 250.808Z" fill="#0F0F0F" stroke="white" stroke-linecap="round" stroke-linejoin="round"/>
<path d="M391.139 250.805L333.69 284.164L275.864 250.805L333.331 217.444L391.139 250.805Z" fill="#0F0F0F" stroke="white" stroke-linecap="round" stroke-linejoin="round"/>
<path d="M277.06 317.19L276.855 386.813L219.047 353.453L219.235 283.831L277.06 317.19Z" fill="#F7B500" stroke="white" stroke-linecap="round" stroke-linejoin="round"/>
<path d="M334.512 283.831L334.325 353.453L276.858 386.813L277.063 317.19L334.512 283.831Z" fill="#0F0F0F" stroke="white" stroke-linecap="round" stroke-linejoin="round"/>
<path d="M334.507 283.828L277.058 317.187L219.232 283.828L276.699 250.468L334.507 283.828Z" fill="#0F0F0F" stroke="white" stroke-linecap="round" stroke-linejoin="round"/>
<path d="M448.168 73.0729L447.963 142.696L390.155 109.336L390.343 39.7139L448.168 73.0729Z" fill="#734EE1" stroke="white" stroke-linecap="round" stroke-linejoin="round"/>
<path d="M505.62 39.7139L505.433 109.336L447.966 142.696L448.171 73.0729L505.62 39.7139Z" fill="#0F0F0F" stroke="white" stroke-linecap="round" stroke-linejoin="round"/>
<path d="M505.615 39.7109L448.165 73.07L390.34 39.7109L447.807 6.35046L505.615 39.7109Z" fill="#0F0F0F" stroke="white" stroke-linecap="round" stroke-linejoin="round"/>
<path d="M338.414 351.385L338.209 421.009L280.401 387.648L280.589 318.026L338.414 351.385Z" fill="#734EE1" stroke="white" stroke-linecap="round" stroke-linejoin="round"/>
<path d="M395.866 318.026L395.679 387.648L338.212 421.009L338.417 351.385L395.866 318.026Z" fill="#0F0F0F" stroke="white" stroke-linecap="round" stroke-linejoin="round"/>
<path d="M395.861 318.023L338.412 351.382L280.586 318.023L338.053 284.663L395.861 318.023Z" fill="#0F0F0F" stroke="white" stroke-linecap="round" stroke-linejoin="round"/>
<path d="M395.062 244.073L394.857 313.696L337.049 280.336L337.236 210.714L395.062 244.073Z" fill="#734EE1" stroke="white" stroke-linecap="round" stroke-linejoin="round"/>
<path d="M452.514 210.714L452.327 280.336L394.86 313.696L395.065 244.073L452.514 210.714Z" fill="#0F0F0F" stroke="white" stroke-linecap="round" stroke-linejoin="round"/>
<path d="M452.509 210.711L395.059 244.07L337.234 210.711L394.701 177.35L452.509 210.711Z" fill="#0F0F0F" stroke="white" stroke-linecap="round" stroke-linejoin="round"/>
<path d="M277.06 242.885L276.855 312.509L219.047 279.148L219.235 209.526L277.06 242.885Z" fill="#734EE1" stroke="white" stroke-linecap="round" stroke-linejoin="round"/>
<path d="M334.512 209.526L334.325 279.148L276.858 312.509L277.063 242.885L334.512 209.526Z" fill="#0F0F0F" stroke="white" stroke-linecap="round" stroke-linejoin="round"/>
<path d="M334.507 209.523L277.058 242.882L219.232 209.523L276.699 176.163L334.507 209.523Z" fill="#0F0F0F" stroke="white" stroke-linecap="round" stroke-linejoin="round"/>
<path d="M338.414 277.089L338.209 346.712L280.401 313.351L280.589 243.729L338.414 277.089Z" fill="#F7B500" stroke="white" stroke-linecap="round" stroke-linejoin="round"/>
<path d="M395.866 243.729L395.679 313.351L338.212 346.712L338.417 277.089L395.866 243.729Z" fill="#0F0F0F" stroke="white" stroke-linecap="round" stroke-linejoin="round"/>
<path d="M395.861 243.727L338.412 277.086L280.586 243.727L338.053 210.366L395.861 243.727Z" fill="#0F0F0F" stroke="white" stroke-linecap="round" stroke-linejoin="round"/>
<path d="M98.8525 282.987L98.6478 352.61L40.84 319.25L41.0272 249.628L98.8525 282.987Z" fill="#734EE1" stroke="white" stroke-linecap="round" stroke-linejoin="round"/>
<path d="M156.505 249.628L156.318 319.25L98.8514 352.61L99.0561 282.987L156.505 249.628Z" fill="#0F0F0F" stroke="white" stroke-linecap="round" stroke-linejoin="round"/>
<path d="M156.299 249.286L98.8502 282.645L41.0249 249.286L98.4916 215.926L156.299 249.286Z" fill="#0F0F0F" stroke="white" stroke-linecap="round" stroke-linejoin="round"/>
</svg>
